# xmcd
#
# Track frame offsets: 
#        150
#        17105
#        37845
#        63713
#        84603
#        96782
#        117679
#        138620
#        155919
#        173195
#        190320
#
# Disc length: 2809 seconds
#
# Revision: 2
# Processed by: cddbd v1.5.2PL0 Copyright (c) Steve Scherf et al.
# Submitted via: ExactAudioCopyFreeDBPlugin 1.0
#
DISCID=9e0af70b
DTITLE=David Knopfler - Songs for the Siren
DYEAR=2006
DGENRE=Country
TTITLE0=Steel Wheels
TTITLE1=Fire Down Below
TTITLE2=Sophie's Songs
TTITLE3=Somebody Kind
TTITLE4=Washing Horses in Eden
TTITLE5=Razor Moon
TTITLE6=Accidents Don't  Just Happen
TTITLE7=One Thing Leads to Another
TTITLE8=Drowning Pool
TTITLE9=The Love of Your Life
TTITLE10=Smile and Say Okay
EXTD=
EXTT0=
EXTT1=
EXTT2=
EXTT3=
EXTT4=
EXTT5=
EXTT6=
EXTT7=
EXTT8=
EXTT9=
EXTT10=
PLAYORDER=
